<svg width="272" height="272" viewBox="0 0 272 272" fill="none" xmlns="http://www.w3.org/2000/svg">
<g style="mix-blend-mode:luminosity" opacity="0.1">
<circle cx="60.093" cy="110.698" r="9.48837" fill="#FAEAAD"/>
<circle cx="60.093" cy="9.48837" r="9.48837" fill="#FAEAAD"/>
<circle cx="60.093" cy="211.907" r="9.48837" fill="#FAEAAD"/>
<circle cx="60.093" cy="161.302" r="9.48837" fill="#FAEAAD"/>
<circle cx="60.093" cy="60.093" r="9.48837" fill="#FAEAAD"/>
<circle cx="60.093" cy="262.512" r="9.48837" fill="#FAEAAD"/>
<circle cx="211.907" cy="110.698" r="9.48837" fill="#FAEAAD"/>
<circle cx="211.907" cy="9.48837" r="9.48837" fill="#FAEAAD"/>
<circle cx="211.907" cy="211.907" r="9.48837" fill="#FAEAAD"/>
<circle cx="211.907" cy="161.302" r="9.48837" fill="#FAEAAD"/>
<circle cx="211.907" cy="60.093" r="9.48837" fill="#FAEAAD"/>
<circle cx="211.907" cy="262.512" r="9.48837" fill="#FAEAAD"/>
<circle cx="9.48837" cy="110.698" r="9.48837" fill="#FAEAAD"/>
<circle cx="9.48837" cy="9.48837" r="9.48837" fill="#FAEAAD"/>
<circle cx="9.48837" cy="211.907" r="9.48837" fill="#FAEAAD"/>
<circle cx="9.48837" cy="161.302" r="9.48837" fill="#FAEAAD"/>
<circle cx="9.48837" cy="60.093" r="9.48837" fill="#FAEAAD"/>
<circle cx="9.48837" cy="262.512" r="9.48837" fill="#FAEAAD"/>
<circle cx="161.302" cy="110.698" r="9.48837" fill="#FAEAAD"/>
<circle cx="161.302" cy="9.48837" r="9.48837" fill="#FAEAAD"/>
<circle cx="161.302" cy="211.907" r="9.48837" fill="#FAEAAD"/>
<circle cx="161.302" cy="161.302" r="9.48837" fill="#FAEAAD"/>
<circle cx="161.302" cy="60.093" r="9.48837" fill="#FAEAAD"/>
<circle cx="161.302" cy="262.512" r="9.48837" fill="#FAEAAD"/>
<circle cx="110.698" cy="110.698" r="9.48837" fill="#FAEAAD"/>
<circle cx="110.698" cy="9.48837" r="9.48837" fill="#FAEAAD"/>
<circle cx="110.698" cy="211.907" r="9.48837" fill="#FAEAAD"/>
<circle cx="110.698" cy="161.302" r="9.48837" fill="#FAEAAD"/>
<circle cx="110.698" cy="60.093" r="9.48837" fill="#FAEAAD"/>
<circle cx="110.698" cy="262.512" r="9.48837" fill="#FAEAAD"/>
<circle cx="262.512" cy="110.698" r="9.48837" fill="#FAEAAD"/>
<circle cx="262.512" cy="9.48837" r="9.48837" fill="#FAEAAD"/>
<circle cx="262.512" cy="211.907" r="9.48837" fill="#FAEAAD"/>
<circle cx="262.512" cy="161.302" r="9.48837" fill="#FAEAAD"/>
<circle cx="262.512" cy="60.093" r="9.48837" fill="#FAEAAD"/>
<circle cx="262.512" cy="262.512" r="9.48837" fill="#FAEAAD"/>
</g>
</svg>
